<svg width="43" height="44" viewBox="0 0 43 44" fill="none" xmlns="http://www.w3.org/2000/svg">
<path d="M31.5 3H12.5C7.27546 3 3 7.27361 3 12.5V31.5C3 36.7245 7.27546 41 12.5 41H31.5C36.7245 41 41 36.7245 41 31.5V12.5C41 7.27361 36.7245 3 31.5 3ZM22 29.9164C17.6271 29.9164 14.0832 26.3709 14.0832 22C14.0832 17.6271 17.6271 14.0832 22 14.0832C26.3709 14.0832 29.9168 17.6271 29.9168 22C29.9168 26.3709 26.3709 29.9164 22 29.9164ZM32.2918 14.0832C30.9789 14.0832 29.9168 13.0196 29.9168 11.7082C29.9168 10.3967 30.9789 9.33318 32.2918 9.33318C33.6047 9.33318 34.6668 10.3967 34.6668 11.7082C34.6668 13.0196 33.6047 14.0832 32.2918 14.0832Z" fill="#282828"/>
</svg>
